# xmcd
#
# Track frame offsets:
#	183
#	17315
#	41515
#	62600
#	79883
#	109035
#	123708
#	136133
#	170480
#	184183
#	200430
#	216765
#	238958
#	254863
#	269983
#	283898
#
# Disc length: 4165 seconds
#
# Revision: 1
# Processed by: cddbd v1.4PL0 Copyright (c) Steve Scherf et al.
# Submitted via: audiograbber 1.81.03
#
DISCID=fb104310
DTITLE=Various Artist - Blues Town - Vol 1
DYEAR=1994
DGENRE=Blues
TTITLE0=Downchild Blues Band - It's A Matter Of Time
TTITLE1=Too Slim and The Taildraggers - These Boots Are Made For Walking
TTITLE2=Smokey Wilson - You Took Everything
TTITLE3=Lynn August - Lead Me On
TTITLE4=The Producers - Life Could Be Better
TTITLE5=Nightcats - Then The Blues Got Me
TTITLE6=Hollywood Fats - Tribute To T. Bone
TTITLE7=Jim Suhler and Monkey Beat - Love Is Just A Gamble
TTITLE8=Rock Bottom - Let's Go Jookin'
TTITLE9=Have Mercy - Rusty Cars And Lonely Bars
TTITLE10=John Campbell - Going To Dallas
TTITLE11=Hans Olson - Feel Like Coming Home
TTITLE12=Rockin' Louie and The Mama Jammers - Don't Buy Me No More Beer
TTITLE13=World Famous Blue Jays - Good Morning Mr. Trucker
TTITLE14=Monti Amundson and The Blubinos - Tear It Up
TTITLE15=Maria Muldaur - Sweet And Slow
EXTD=
EXTT0=
EXTT1=
EXTT2=
EXTT3=
EXTT4=
EXTT5=
EXTT6=
EXTT7=
EXTT8=
EXTT9=
EXTT10=
EXTT11=
EXTT12=
EXTT13=
EXTT14=
EXTT15=
PLAYORDER=
